<svg xmlns:dc="http://purl.org/dc/elements/1.1/" xmlns:cc="http://creativecommons.org/ns#" xmlns:rdf="http://www.w3.org/1999/02/22-rdf-syntax-ns#" xmlns:svg="http://www.w3.org/2000/svg" xmlns="http://www.w3.org/2000/svg" xmlns:sodipodi="http://sodipodi.sourceforge.net/DTD/sodipodi-0.dtd" xmlns:inkscape="http://www.inkscape.org/namespaces/inkscape" version="1.1" x="0px" y="0px" viewBox="0 0 100 100"><g transform="translate(0,-952.36218)"><path style="color:#000000;enable-background:accumulate;" d="m 40.000015,958.36216 c -3.33371,13.3348 -7.57945,19.9778 -15.0625,24.7188 l 13.84375,16.625 c 0.3047,0.34304 0.32615,0.90414 0.0485,1.26944 -0.27762,0.3652 -0.82398,0.4948 -1.23603,0.293 l -5.03125,-2.15624 1.40625,4.96884 c 0.10785,0.4304 -0.11115,0.9208 -0.50368,1.1277 -0.39252,0.207 -0.92084,0.1107 -1.21507,-0.2215 l -15.125,-17.96884 c -1.89148,0.7825 -3.91234,1.5629 -6.125,2.3438 l 0,14.00004 36,43 0,-13 c 15,-5 24,-16 30,-29 z m 8,88.00004 c 19,-5 32,-10 38,-13 l 0,-10.9688 c -9.24964,7.3718 -26.88282,16.7083 -38,20.9688 z m 2,-83.00004 -1.875,1.875 30.4375,37.84384 c 0.46205,0.5784 0.56287,1.4228 0.25,2.0937 -6.09277,13.201 -15.44613,24.6795 -30.84375,29.9375 l 0.0312,2.25 c 16,-4 28,-18 39,-31 l -37,-43.00004 z m -26.8125,20.7812 c -1.29272,0.7247 -2.67337,1.4 -4.15625,2.0626 l 11.71875,13.93744 -0.71875,-2.53124 c -0.21049,-0.7298 0.6836,-1.502 1.375,-1.1875 l 3.125,1.3437 z m 61.09375,28.50004 c -9.25562,10.7399 -22.9991,22.3447 -36.28125,26.7188 l 0,2 c 15,-4 29,-14 41,-24 z" fill="#000000" stroke="none" marker="none" visibility="visible" display="inline" overflow="visible"/></g></svg>