<svg xmlns="http://www.w3.org/2000/svg" xmlns:xlink="http://www.w3.org/1999/xlink" version="1.1" x="0px" y="0px" viewBox="0 0 90 112.5" enable-background="new 0 0 90 90" xml:space="preserve"><g><path d="M16.668,25h56.664c2.406,0,4.358-1.594,4.358-4s-1.952-4-4.358-4H16.668c-2.406,0-4.358,1.594-4.358,4S14.262,25,16.668,25   z"/><path d="M73.332,41H16.668c-2.406,0-4.358,1.594-4.358,4s1.953,4,4.358,4h56.664c2.406,0,4.358-1.594,4.358-4S75.738,41,73.332,41z   "/><path d="M73.332,65H39.915c-2.407,0-4.359,1.595-4.359,4c0,2.406,1.953,4,4.359,4h33.417c2.406,0,4.358-1.594,4.358-4   C77.69,66.595,75.738,65,73.332,65z"/></g><text x="0" y="105" fill="#000000" font-size="5px" font-weight="bold" font-family="'Helvetica Neue', Helvetica, Arial-Unicode, Arial, Sans-serif">Created by Gilad Sotil</text><text x="0" y="110" fill="#000000" font-size="5px" font-weight="bold" font-family="'Helvetica Neue', Helvetica, Arial-Unicode, Arial, Sans-serif">from the Noun Project</text></svg>