<svg xmlns="http://www.w3.org/2000/svg" xmlns:xlink="http://www.w3.org/1999/xlink" version="1.1" x="0px" y="0px" viewBox="0 0 100 80" enable-background="new 0 0 100 100" xml:space="preserve"><g><g><path fill="#000000" d="M29.556,30.177c7.853,7.164,15.706,14.327,23.561,21.49c3.564,3.252,8.884-2.037,5.303-5.303    C50.565,39.2,42.711,32.037,34.858,24.873C31.294,21.622,25.976,26.911,29.556,30.177L29.556,30.177z"/></g></g><g><g><path fill="#000000" d="M53.039,46.364c-7.803,7.802-15.604,15.604-23.407,23.407c-3.422,3.424,1.881,8.727,5.304,5.304    c7.802-7.802,15.604-15.604,23.405-23.407C61.765,48.245,56.462,42.941,53.039,46.364L53.039,46.364z"/></g></g><g><g><path fill="#000000" d="M47.188,30.177c7.853,7.164,15.706,14.327,23.561,21.49c3.564,3.252,8.884-2.037,5.303-5.303    C68.197,39.2,60.343,32.037,52.49,24.873C48.927,21.622,43.607,26.911,47.188,30.177L47.188,30.177z"/></g></g><g><g><path fill="#000000" d="M70.671,46.364c-7.803,7.802-15.604,15.604-23.407,23.407c-3.421,3.424,1.882,8.727,5.305,5.304    c7.802-7.802,15.604-15.604,23.405-23.407C79.396,48.245,74.094,42.941,70.671,46.364L70.671,46.364z"/></g></g></svg>